<svg id="Layer_1" height="48" width="48" data-name="Layer 1" xmlns="http://www.w3.org/2000/svg" viewBox="0 0 512 512"><defs><style>.cls-1{fill:#141f38;}</style></defs><title>helmet_2_style_2</title><path class="cls-1" d="M479.91,262.4H460.72V81a38.38,38.38,0,1,0-25.59,0v82.25A204.63,204.63,0,0,0,256,57.68c-113.06,0-204.72,91.66-204.72,204.72H32.09a32,32,0,0,0-32,32v76.77a32,32,0,0,0,32,32H51.28v38.38a64,64,0,0,0,64,64H396.74a64,64,0,0,0,64-64V403.14h19.19a32,32,0,0,0,32-32V294.38A32,32,0,0,0,479.91,262.4Zm-32-230.31a12.79,12.79,0,1,1-12.79,12.79A12.81,12.81,0,0,1,447.92,32.09ZM256,83.27c98.77,0,179.13,80.36,179.13,179.13V377.55H76.87V262.4C76.87,163.63,157.23,83.27,256,83.27ZM32.09,377.55a6.4,6.4,0,0,1-6.4-6.4V294.38a6.4,6.4,0,0,1,6.4-6.4H51.28v89.56Zm403,64a38.43,38.43,0,0,1-38.38,38.38H115.26a38.43,38.43,0,0,1-38.38-38.38V403.14H435.13Zm51.18-70.37a6.4,6.4,0,0,1-6.4,6.4H460.72V288h19.19a6.4,6.4,0,0,1,6.4,6.4ZM102.46,441.53a12.79,12.79,0,1,1,12.79,12.79A12.79,12.79,0,0,1,102.46,441.53Z"/></svg>